<svg xmlns="http://www.w3.org/2000/svg" version="1.1" xmlns:xlink="http://www.w3.org/1999/xlink" xmlns:svgjs="http://svgjs.dev/svgjs" width="1000" height="1029" viewBox="0 0 1000 1029"><g transform="matrix(1,0,0,1,0.9603471922902145,0.4166186624123611)"><svg viewBox="0 0 240 247" data-background-color="#ffffff" preserveAspectRatio="xMidYMid meet" height="1029" width="1000" xmlns="http://www.w3.org/2000/svg" xmlns:xlink="http://www.w3.org/1999/xlink"><g id="tight-bounds" transform="matrix(1,0,0,1,-0.2304833261496526,-0.10000467406788971)"><svg viewBox="0 0 240.4609665427509 247.2" height="247.2" width="240.4609665427509"><g><svg viewBox="0 0 240.4609665427509 247.2" height="247.2" width="240.4609665427509"><g><svg viewBox="0 0 240.4609665427509 247.2" height="247.2" width="240.4609665427509"><g id="textblocktransform"><svg viewBox="0 0 240.4609665427509 247.2" height="247.2" width="240.4609665427509" id="textblock"><g><svg viewBox="0 0 240.4609665427509 247.2" height="247.2" width="240.4609665427509"><g transform="matrix(1,0,0,1,0,0)"><svg width="240.4609665427509" viewBox="-0.45000001788139343 -36 39.25 40.349998474121094" height="247.2" data-palette-color="#010c80"><path d="M-0.45 4.35L-0.45 4.35Q-0.2 3.6 1.07 0.83 2.35-1.95 4.45-6.53 6.55-11.1 9.38-17.23 12.2-23.35 15.55-30.75L15.55-30.75Q15.7-31.1 15.85-31.6 16-32.1 16-32.5L16-32.5Q16-33.05 15.7-33.38 15.4-33.7 14.45-33.7L14.45-33.7Q12.35-33.7 11.03-32.38 9.7-31.05 9.05-29.1 8.4-27.15 8.4-25.3L8.4-25.3Q8.4-24.8 8.45-24.3 8.5-23.8 8.55-23.15L8.55-23.15Q7.45-23.15 6.75-23.88 6.05-24.6 5.68-25.63 5.3-26.65 5.3-27.55L5.3-27.55Q5.3-29.2 6.23-30.7 7.15-32.2 8.63-33.4 10.1-34.6 11.9-35.3 13.7-36 15.45-36L15.45-36Q17.2-36 18.45-35 19.7-34 20.35-31.43 21-28.85 21-24L21-24Q21-20.8 20.78-17.43 20.55-14.05 20.3-10.98 20.05-7.9 20.05-5.6L20.05-5.6Q20.95-8.6 22.43-11.95 23.9-15.3 25.63-18.63 27.35-21.95 29.05-24.9 30.75-27.85 32.1-30.03 33.45-32.2 34.1-33.25L34.1-33.25Q34.8-34.3 35.35-34.85 35.9-35.4 36.8-35.4L36.8-35.4Q37.5-35.4 38.8-34.9L38.8-34.9Q38.35-33.95 37.75-31.98 37.15-30 36.45-27.35L36.45-27.35Q35.7-24.3 34.93-20.63 34.15-16.95 33.52-13.2 32.9-9.45 32.52-6.08 32.15-2.7 32.15-0.25L32.15-0.25Q32.15 1 32.27 1.7 32.4 2.4 32.6 2.93 32.8 3.45 33.05 4.35L33.05 4.35Q31.05 4.35 30 3.73 28.95 3.1 28.6 1.75 28.25 0.4 28.25-1.85L28.25-1.85Q28.25-7.55 29.63-13.9 31-20.25 32.75-27.05L32.75-27.05Q31.35-25.1 29.83-22.33 28.3-19.55 26.8-16.43 25.3-13.3 23.98-10.23 22.65-7.15 21.6-4.53 20.55-1.9 20-0.15L20-0.15Q19.6 0 19.45 0.05 19.3 0.1 19.05 0.1L19.05 0.1Q17.45 0.1 16.98-1.85 16.5-3.8 16.5-7.25L16.5-7.25Q16.5-9.25 16.57-11.68 16.65-14.1 16.78-16.65 16.9-19.2 16.98-21.65 17.05-24.1 17.05-26.15L17.05-26.15Q17.05-27 17.03-27.73 17-28.45 17-29.05L17-29.05Q13.1-20.05 10.45-13.68 7.8-7.3 5.98-3.33 4.15 0.65 2.65 2.5 1.15 4.35-0.45 4.35Z" opacity="1" transform="matrix(1,0,0,1,0,0)" fill="#010c80" class="undefined-text-0" data-fill-palette-color="primary" id="text-0"></path></svg></g></svg></g></svg></g></svg></g><g></g></svg></g><defs></defs></svg><rect width="240.4609665427509" height="247.2" fill="none" stroke="none" visibility="hidden"></rect></g></svg></g></svg>